<?xml version="1.0" encoding="utf-8"?>
<svg viewBox="0 0 115 25" fill="none" xmlns="http://www.w3.org/2000/svg">
  <path d="M 46.858 7.294 L 46.117 7.294 L 39.661 19.858 L 42.502 19.858 L 43.694 17.527 L 48.938 17.527 L 50.042 19.858 L 52.842 19.858 L 46.858 7.294 Z M 44.996 15.012 L 46.426 12.217 L 47.745 15.012 L 44.996 15.012 Z" fill="black"/>
  <path d="M 69.927 7.294 L 66.818 7.294 L 63.872 11.417 L 62.316 13.595 L 57.813 19.858 L 60.937 19.858 L 63.886 15.755 L 66.832 19.858 L 69.942 19.858 L 65.425 13.595 L 69.927 7.294 Z M 63.091 10.325 L 60.937 7.294 L 57.813 7.294 L 61.549 12.517 L 63.091 10.325 Z" fill="black"/>
  <path d="M 75.259 7.294 L 75.259 19.832 L 77.791 19.832 L 77.791 7.294 L 75.259 7.294 Z" fill="black"/>
  <path d="M 90.14 7.073 C 88.84 7.071 87.569 7.451 86.488 8.165 C 85.406 8.88 84.563 9.896 84.065 11.086 C 83.567 12.275 83.436 13.585 83.689 14.848 C 83.942 16.112 84.568 17.272 85.487 18.183 C 86.406 19.093 87.577 19.713 88.852 19.964 C 90.127 20.214 91.448 20.084 92.648 19.589 C 93.848 19.095 94.873 18.259 95.593 17.187 C 96.313 16.114 96.696 14.854 96.693 13.566 C 96.685 11.846 95.993 10.198 94.765 8.982 C 93.538 7.766 91.875 7.08 90.14 7.073 Z M 90.14 17.505 C 89.356 17.505 88.591 17.276 87.939 16.845 C 87.287 16.414 86.779 15.802 86.479 15.085 C 86.178 14.368 86.098 13.579 86.25 12.817 C 86.402 12.056 86.778 11.356 87.33 10.806 C 87.883 10.256 88.588 9.881 89.356 9.728 C 90.124 9.575 90.92 9.651 91.644 9.946 C 92.369 10.241 92.988 10.743 93.425 11.387 C 93.862 12.032 94.096 12.79 94.099 13.566 C 94.099 14.082 93.997 14.592 93.798 15.069 C 93.599 15.545 93.308 15.978 92.94 16.343 C 92.572 16.708 92.136 16.997 91.655 17.194 C 91.175 17.392 90.66 17.493 90.14 17.493 L 90.14 17.505 Z" fill="black"/>
  <path d="M 114.113 7.294 L 108.832 12.064 L 103.535 7.294 L 102.677 7.294 L 102.677 19.858 L 105.208 19.858 L 105.208 12.177 L 108.841 15.455 L 112.468 12.177 L 112.468 19.858 L 115 19.858 L 115 7.294 L 114.113 7.294 Z" fill="black"/>
  <path d="M 29.58 21.074 L 28.55 19.294 C 25.516 14.082 22.483 8.875 19.451 3.671 C 19.401 3.609 19.371 3.534 19.364 3.456 C 19.356 3.377 19.373 3.298 19.411 3.228 C 19.929 2.352 20.441 1.471 20.956 0.592 C 20.982 0.549 21.016 0.509 21.09 0.407 L 34.898 24.122 C 34.738 24.122 34.646 24.145 34.552 24.145 C 31.069 24.145 27.588 24.145 24.108 24.145 C 24.012 24.151 23.917 24.126 23.836 24.076 C 23.755 24.025 23.692 23.95 23.656 23.861 C 21.202 19.487 18.745 15.112 16.285 10.737 C 15.538 9.41 14.777 8.088 14.022 6.767 C 13.979 6.69 13.928 6.62 13.83 6.469 C 10.97 11.343 8.169 16.18 5.326 21.057 C 5.42 21.081 5.516 21.097 5.612 21.106 C 6.756 21.106 7.915 21.106 9.065 21.106 C 9.149 21.107 9.232 21.084 9.302 21.038 C 9.372 20.993 9.427 20.927 9.46 20.85 C 10.836 18.476 12.218 16.104 13.604 13.734 C 13.667 13.623 13.742 13.521 13.845 13.368 C 14.088 13.779 14.305 14.142 14.517 14.502 C 14.834 15.043 15.14 15.594 15.469 16.129 C 15.523 16.204 15.551 16.293 15.551 16.385 C 15.551 16.476 15.523 16.565 15.469 16.64 C 14.049 19.067 12.633 21.494 11.222 23.921 C 11.185 23.995 11.127 24.057 11.054 24.097 C 10.982 24.138 10.898 24.156 10.815 24.148 C 7.326 24.148 3.836 24.148 0.346 24.148 C 0.257 24.148 0.172 24.148 0 24.131 L 13.825 0.393 C 13.908 0.512 13.959 0.577 13.999 0.648 C 17.901 7.345 21.799 14.043 25.693 20.74 C 25.747 20.862 25.839 20.964 25.956 21.032 C 26.073 21.099 26.208 21.128 26.342 21.114 C 27.289 21.094 28.236 21.114 29.183 21.114 C 29.294 21.106 29.406 21.088 29.58 21.074 Z" fill="black" style="transform-origin: 17.449px 12.2714px;"/>
</svg>