<svg width="401" height="69" viewBox="0 0 401 69" fill="none" xmlns="http://www.w3.org/2000/svg">
<path fill-rule="evenodd" clip-rule="evenodd" d="M57 0H0V57H12V69H69V12H57V0ZM57 12H12V57H57V12Z" fill="black"/>
<path d="M98.7299 12.5H107.78V31.6C109.013 30.1 110.263 29.1 111.53 28.6C112.797 28.0667 114.28 27.8 115.98 27.8C119.213 27.8 121.647 28.7 123.28 30.5C124.947 32.2667 125.78 34.6667 125.78 37.7V54H116.73V41.05C116.73 39.75 116.63 38.7 116.43 37.9C116.23 37.1 115.897 36.4833 115.43 36.05C114.63 35.35 113.663 35 112.53 35C110.997 35 109.813 35.4667 108.98 36.4C108.18 37.3 107.78 38.6 107.78 40.3V54H98.7299V12.5ZM140.833 41.1C140.833 41.9333 140.983 42.7167 141.283 43.45C141.583 44.15 141.983 44.7667 142.483 45.3C143.016 45.8333 143.633 46.25 144.333 46.55C145.066 46.85 145.85 47 146.683 47C147.483 47 148.233 46.85 148.933 46.55C149.666 46.25 150.283 45.8333 150.783 45.3C151.316 44.7667 151.733 44.15 152.033 43.45C152.366 42.75 152.533 42 152.533 41.2C152.533 40.4 152.366 39.65 152.033 38.95C151.733 38.2167 151.316 37.5833 150.783 37.05C150.283 36.5167 149.666 36.1 148.933 35.8C148.233 35.5 147.483 35.35 146.683 35.35C145.85 35.35 145.066 35.5 144.333 35.8C143.633 36.1 143.016 36.5167 142.483 37.05C141.983 37.5833 141.583 38.2 141.283 38.9C140.983 39.5667 140.833 40.3 140.833 41.1ZM152.233 28.35H161.333V54H152.233V51.15C150.3 53.5833 147.683 54.8 144.383 54.8C142.516 54.8 140.8 54.4667 139.233 53.8C137.666 53.1 136.3 52.1333 135.133 50.9C133.966 49.6667 133.05 48.2167 132.383 46.55C131.75 44.8833 131.433 43.0667 131.433 41.1C131.433 39.2667 131.75 37.5333 132.383 35.9C133.016 34.2333 133.9 32.7833 135.033 31.55C136.166 30.3167 137.516 29.35 139.083 28.65C140.65 27.9167 142.383 27.55 144.283 27.55C147.483 27.55 150.133 28.6667 152.233 30.9V28.35ZM177.042 12.5V54H167.992V12.5H177.042ZM192.276 41.05C192.276 41.9167 192.426 42.7167 192.726 43.45C193.059 44.15 193.476 44.7667 193.976 45.3C194.509 45.8333 195.126 46.25 195.826 46.55C196.559 46.85 197.326 47 198.126 47C198.926 47 199.676 46.85 200.376 46.55C201.109 46.25 201.726 45.8333 202.226 45.3C202.759 44.7667 203.176 44.15 203.476 43.45C203.809 42.7167 203.976 41.9333 203.976 41.1C203.976 40.3 203.809 39.55 203.476 38.85C203.176 38.1167 202.759 37.4833 202.226 36.95C201.726 36.4167 201.109 36 200.376 35.7C199.676 35.4 198.926 35.25 198.126 35.25C197.326 35.25 196.559 35.4 195.826 35.7C195.126 36 194.509 36.4167 193.976 36.95C193.476 37.4833 193.059 38.1 192.726 38.8C192.426 39.5 192.276 40.25 192.276 41.05ZM182.726 40.95C182.726 39.05 183.109 37.2833 183.876 35.65C184.643 33.9833 185.709 32.55 187.076 31.35C188.443 30.1167 190.059 29.15 191.926 28.45C193.826 27.75 195.893 27.4 198.126 27.4C200.326 27.4 202.359 27.75 204.226 28.45C206.126 29.1167 207.759 30.0667 209.126 31.3C210.526 32.5 211.609 33.95 212.376 35.65C213.143 37.3167 213.526 39.1667 213.526 41.2C213.526 43.2333 213.126 45.1 212.326 46.8C211.559 48.4667 210.493 49.9167 209.126 51.15C207.759 52.35 206.109 53.2833 204.176 53.95C202.276 54.6167 200.209 54.95 197.976 54.95C195.776 54.95 193.743 54.6167 191.876 53.95C190.009 53.2833 188.393 52.3333 187.026 51.1C185.693 49.8667 184.643 48.4 183.876 46.7C183.109 44.9667 182.726 43.05 182.726 40.95ZM247.886 54H217.536L226.886 44.3C229.352 41.7333 231.286 39.5667 232.686 37.8C234.086 36 235.119 34.4833 235.786 33.25C236.486 32.0167 236.919 31.0167 237.086 30.25C237.252 29.4833 237.336 28.8333 237.336 28.3C237.336 27.7333 237.236 27.1833 237.036 26.65C236.869 26.1167 236.602 25.65 236.236 25.25C235.869 24.8167 235.419 24.4833 234.886 24.25C234.386 23.9833 233.786 23.85 233.086 23.85C231.752 23.85 230.702 24.2833 229.936 25.15C229.202 26.0167 228.836 27.1 228.836 28.4C228.836 28.7667 228.886 29.3 228.986 30H218.286C218.286 27.8 218.636 25.8 219.336 24C220.069 22.2 221.086 20.65 222.386 19.35C223.686 18.05 225.219 17.05 226.986 16.35C228.786 15.65 230.752 15.3 232.886 15.3C234.986 15.3 236.919 15.6333 238.686 16.3C240.486 16.9667 242.036 17.9 243.336 19.1C244.636 20.3 245.652 21.7333 246.386 23.4C247.119 25.0333 247.486 26.8167 247.486 28.75C247.486 30.8167 247.036 32.7333 246.136 34.5C245.269 36.2333 243.869 38.0167 241.936 39.85L235.686 45.7H247.886V54ZM253.72 28.35H262.77V32.55C263.737 31.0167 264.92 29.85 266.32 29.05C267.72 28.2167 269.353 27.8 271.22 27.8C271.453 27.8 271.703 27.8 271.97 27.8C272.27 27.8 272.603 27.8333 272.97 27.9V36.55C271.77 35.95 270.47 35.65 269.07 35.65C266.97 35.65 265.387 36.2833 264.32 37.55C263.287 38.7833 262.77 40.6 262.77 43V54H253.72V28.35ZM296.554 37.45C296.254 36.1833 295.637 35.1667 294.704 34.4C293.771 33.6333 292.637 33.25 291.304 33.25C289.904 33.25 288.754 33.6167 287.854 34.35C286.987 35.0833 286.437 36.1167 286.204 37.45H296.554ZM285.954 42.7C285.954 46.6 287.787 48.55 291.454 48.55C293.421 48.55 294.904 47.75 295.904 46.15H304.654C302.887 52.0167 298.471 54.95 291.404 54.95C289.237 54.95 287.254 54.6333 285.454 54C283.654 53.3333 282.104 52.4 280.804 51.2C279.537 50 278.554 48.5667 277.854 46.9C277.154 45.2333 276.804 43.3667 276.804 41.3C276.804 39.1667 277.137 37.25 277.804 35.55C278.471 33.8167 279.421 32.35 280.654 31.15C281.887 29.95 283.371 29.0333 285.104 28.4C286.871 27.7333 288.854 27.4 291.054 27.4C293.221 27.4 295.171 27.7333 296.904 28.4C298.637 29.0333 300.104 29.9667 301.304 31.2C302.504 32.4333 303.421 33.95 304.054 35.75C304.687 37.5167 305.004 39.5167 305.004 41.75V42.7H285.954ZM331.127 41.25C331.127 40.45 330.977 39.7 330.677 39C330.41 38.2667 330.01 37.6333 329.477 37.1C328.944 36.5667 328.31 36.15 327.577 35.85C326.877 35.5167 326.11 35.35 325.277 35.35C324.477 35.35 323.727 35.5 323.027 35.8C322.327 36.1 321.71 36.5167 321.177 37.05C320.677 37.5833 320.26 38.2167 319.927 38.95C319.627 39.65 319.477 40.4 319.477 41.2C319.477 42 319.627 42.75 319.927 43.45C320.227 44.15 320.644 44.7667 321.177 45.3C321.71 45.8 322.327 46.2167 323.027 46.55C323.76 46.85 324.527 47 325.327 47C326.127 47 326.877 46.85 327.577 46.55C328.277 46.25 328.877 45.8333 329.377 45.3C329.91 44.7667 330.327 44.15 330.627 43.45C330.96 42.75 331.127 42.0167 331.127 41.25ZM319.727 66.8H310.677V28.35H319.727V31.2C321.66 28.7667 324.294 27.55 327.627 27.55C329.46 27.55 331.16 27.9167 332.727 28.65C334.327 29.35 335.71 30.3167 336.877 31.55C338.044 32.7833 338.944 34.2333 339.577 35.9C340.244 37.5667 340.577 39.35 340.577 41.25C340.577 43.15 340.244 44.9167 339.577 46.55C338.944 48.1833 338.044 49.6167 336.877 50.85C335.744 52.0833 334.394 53.05 332.827 53.75C331.26 54.45 329.56 54.8 327.727 54.8C324.527 54.8 321.86 53.7 319.727 51.5V66.8ZM355.286 12.5V54H346.236V12.5H355.286Z" fill="black"/>
</svg>
